<svg id="Capa_1" data-name="Capa 1" xmlns="http://www.w3.org/2000/svg" viewBox="0 0 246.19 455.91"><defs><style>.cls-1,.cls-4{fill:none;}.cls-1,.cls-2{stroke:#68a7dd;stroke-width:8px;}.cls-1,.cls-2,.cls-4{stroke-miterlimit:10;}.cls-2,.cls-8{fill:#68a7dd;}.cls-3,.cls-7{fill:#4470b3;}.cls-4{stroke:#fff;stroke-width:0.93px;}.cls-5{fill:#1a1a1a;}.cls-6{fill:#fff;}.cls-7{font-size:69.34px;font-family:Mitr-Bold, Mitr;font-weight:700;}.cls-8{font-size:40px;font-family:Roboto-Medium, Roboto;font-weight:500;}.cls-9{letter-spacing:-0.02em;}</style></defs><title>logo_prueba</title><path class="cls-1" d="M284.15,194.29h.32c0,8.18-1.3,16.63.3,24.49a248.2,248.2,0,0,0,10.69,35.94,369.44,369.44,0,0,0,15.69,36.75c7,14,14.85,27.57,22.49,41.24,5.5,9.83,11.21,19.55,16.9,29.27,4.22,7.22,8.62,14.34,12.85,21.56,5.22,8.93,10.32,17.94,15.53,26.88,5.13,8.78,10.2,17.59,15.62,26.19a8.7,8.7,0,0,0,5.33,3.25c4.63.87,6.6-1.83,8.66-6,4.22-8.47,9.71-16.3,14.52-24.48,7.93-13.48,15.75-27,23.59-40.54q13.74-23.69,27.41-47.42c4.51-7.87,9.16-15.7,13.13-23.84,4.63-9.5,8.7-19.27,12.78-29,3.82-9.14,7.79-18.26,10.87-27.66,2.56-7.8,4.9-15.92,5.58-24,1-12.12.23-24.39.68-36.58.32-8.51-1.85-16.52-4.45-24.32-5.17-15.59-13.75-29.34-24.78-41.51A115.74,115.74,0,0,0,452,87.5c-14.2-6.8-28.84-11.77-45-10.57-6.63.5-13.33-.13-20,.16a69.25,69.25,0,0,0-13.86,1.73,118.18,118.18,0,0,0-61.81,38,121.33,121.33,0,0,0-22.66,38.72c-2.95,8.19-5.05,16.59-4.53,25.47C284.37,185.4,284.15,189.85,284.15,194.29Z" transform="translate(-277.23 -71.73)"/><path class="cls-2" d="M281.23,193.13a102.26,102.26,0,0,1,1.08-14.27,108.29,108.29,0,0,1,6.32-23.36,132,132,0,0,1,12-24.43,121.89,121.89,0,0,1,10.69-14.29,118.18,118.18,0,0,1,61.81-38l.74-.17a30,30,0,0,1,4.56-.53c2.17-.07,3.48-.46,8.56-1,4.54-.52,8-.71,11.68-.93,6.05-.35,10.71-.43,11.46-.43,8.91-.09,25.47,3.6,41.85,11.77A120.86,120.86,0,0,1,512.64,156a118,118,0,0,1,5.88,54.29c-1.42,11.64-4.13,19.86-7.69,30.65-2.44,7.39-5.22,14.16-10.87,27.66-4.08,9.74-8.15,19.51-12.78,29-4,8.14-8.62,16-13.13,23.84q-13.62,23.76-27.41,47.42c-7.84,13.53-15.66,27.06-23.59,40.54-4.81,8.18-10.3,16-14.52,24.48-2.06,4.15-4,6.85-8.66,6a8.7,8.7,0,0,1-5.33-3.25c-5.42-8.6-10.49-17.41-15.62-26.19-5.21-8.94-10.31-17.95-15.53-26.88-4.23-7.22-8.63-14.34-12.85-21.56-5.69-9.72-11.4-19.44-16.9-29.27C326,319,318.1,305.49,311.15,291.47a369.44,369.44,0,0,1-15.69-36.75c-3.85-10.48-7.71-21.17-10.69-35.94a205.78,205.78,0,0,1-3.11-20.89ZM513,194.58l.66-.05c-.7-7.51-.84-15.13-2.2-22.52-3.26-17.7-10.88-33.54-21.89-47.77a106.68,106.68,0,0,0-41.67-32.92c-9.75-4.3-20.16-8.55-30.58-9.51-12.58-1.15-25.68-2.49-38.27,1.13-8.87,2.56-17.92,5-26.27,8.81C328.51,102.89,310.46,121,299.06,145c-4.7,9.94-9.1,20.76-10.1,31.51-1.22,13.12-1.7,26.6.9,40a242.08,242.08,0,0,0,14.08,46.16c10.9,26.42,24.6,51.43,38.92,76.09,18.44,31.73,37.17,63.3,55.81,94.91.5.85,1.46,2,2.18,2s1.64-1.2,2.15-2.06q9.79-16.65,19.49-33.36,24.24-41.89,48.46-83.81c12.39-21.35,23.22-43.45,31.53-66.68,6.31-17.65,12-35.56,10.56-54.76C513,194.86,513,194.72,513,194.58Z" transform="translate(-277.23 -71.73)"/><path class="cls-1" d="M514.1,195.73a127.35,127.35,0,0,1-1.54,20.53,131.9,131.9,0,0,1-10.08,33.5C482.92,294.43,471,316.44,471,316.44q-24.3,41.87-48.46,83.81Q412.8,417,403,433.61c-.51.86-1.4,2-2.15,2.06s-1.68-1.14-2.18-2C380,402.07,361.3,370.5,342.86,338.77c-14.32-24.66-28-49.67-38.92-76.09a242.08,242.08,0,0,1-14.08-46.16c-2.6-13.38-2.12-26.86-.9-40,1-10.75,5.4-21.57,10.1-31.51,11.4-24.07,29.45-42.14,53.76-53.28,8.35-3.83,17.4-6.25,26.27-8.81,12.59-3.62,25.69-2.28,38.27-1.13,10.42,1,20.83,5.21,30.58,9.51a106.68,106.68,0,0,1,41.67,32.92A115.36,115.36,0,0,1,511.5,172a112.2,112.2,0,0,1,2,15.28Z" transform="translate(-277.23 -71.73)"/><path class="cls-3" d="M330.64,259.84V196.67c0-3.1,0-9.47.29-16.3h41c-.2,5.35-.33,11.44-.33,16.3v63.17c0,19.19,12.9,34.81,28.77,34.81S429.1,279,429.1,259.84V196.67c0-2.65-.3-10-.66-16.3h41c.41,7.63.6,14.95.6,16.3v63.17c0,41.75-31.26,75.72-69.68,75.72S330.64,301.59,330.64,259.84Z" transform="translate(-277.23 -71.73)"/><path class="cls-4" d="M367.41,184.71c-.12,4.2-.19,8.45-.19,12v63.17c0,21.58,14.85,39.14,33.11,39.14s33.11-17.56,33.11-39.14V196.67c0-2.2-.19-7.16-.43-12h32.27c.27,6,.4,11,.4,12v63.17c0,39.36-29.32,71.38-65.35,71.38S335,299.2,335,259.84V196.67c0-2.46,0-6.88.15-12Z" transform="translate(-277.23 -71.73)"/><path class="cls-5" d="M348.05,197.79h1.24V199h1.28v9.29l-2.53,0Zm98.47,8.58H449v.14h0v9.29h-2.47v-.14h0Zm-98.47,16.78,2.53,0v9.29l-2.53,0Zm98.47,7.37H449v.14h0V240h-2.47v-.14h0Zm-98.47,16.79,2.53,0v9.29l-2.53,0Zm98.47,7.36H449v.14h0v3.24c0,2.06-.1,4.13-.29,6.16l-2.47-.24s0-.09,0-.13h0c.18-1.9.27-3.85.27-5.78Zm-94.58,16.41v0h0a58.93,58.93,0,0,0,2.65,8.69l-2.31.9v0l0,0a61.17,61.17,0,0,1-2.76-9.06ZM443.12,278l2.34.83,0,.12h0a59,59,0,0,1-3.89,8.65l-2.17-1.2.06-.1,0,0A56.1,56.1,0,0,0,443.12,278Zm-81.56,14.47,0,0,0,0a51.88,51.88,0,0,0,6,6.8l-1.71,1.79,0,0,0,0a54.81,54.81,0,0,1-6.26-7.13ZM430.83,298l1.78,1.73-.08.08,0,0a52,52,0,0,1-7.23,6.16l-1.43-2,.09-.06,0,0A50.16,50.16,0,0,0,430.83,298Zm-51.41,9.62a43.65,43.65,0,0,0,8.45,3.13l-.61,2.4-.08,0v0a47,47,0,0,1-8.92-3.32l1.09-2.22.06,0ZM411,310.2l.72,2.37-.09,0v0a45.36,45.36,0,0,1-9.36,1.78l-.2-2.47h.08v0A43.13,43.13,0,0,0,411,310.2Z" transform="translate(-277.23 -71.73)"/><path class="cls-6" d="M349,198.68h1.24v1.24h1.27v9.29l-2.52,0Zm98.46,8.58h2.48v.14h0v9.29h-2.47v-.14h0ZM349,224.05l2.52,0v9.29l-2.52,0Zm98.46,7.36h2.48v.14h0v9.29h-2.47v-.14h0ZM349,248.2l2.52,0v9.29l-2.52,0Zm98.46,7.36h2.48v.14h0V259c0,2.05-.1,4.12-.29,6.15l-2.47-.24a.57.57,0,0,0,0-.13h0c.18-1.91.27-3.85.27-5.78ZM352.83,272v0h0a58.93,58.93,0,0,0,2.65,8.69l-2.31.9v0h0a61.13,61.13,0,0,1-2.75-9.06ZM444,278.91l2.34.82s0,.08,0,.12h0a59,59,0,0,1-3.88,8.65l-2.17-1.2a.93.93,0,0,1,0-.1l0,0A56.45,56.45,0,0,0,444,278.91Zm-81.55,14.46,0,0,0,0a52.62,52.62,0,0,0,6,6.8L366.8,302l-.05,0,0,0a54.14,54.14,0,0,1-6.27-7.13Zm69.26,5.48,1.78,1.73-.08.08,0,0a52.68,52.68,0,0,1-7.24,6.16l-1.42-2,.08-.06,0,0A48.89,48.89,0,0,0,431.72,298.85Zm-51.41,9.62a44.61,44.61,0,0,0,8.45,3.14l-.61,2.39h-.07v0a46.19,46.19,0,0,1-8.93-3.32l1.1-2.22.06,0Zm31.62,2.62.72,2.37-.09,0v0a45.36,45.36,0,0,1-9.36,1.78l-.2-2.47h.08v0A43.17,43.17,0,0,0,411.93,311.09Z" transform="translate(-277.23 -71.73)"/><path class="cls-6" d="M439.75,203.68c-.67.12-1.32.32-2,.47l-.9.22c-.1,0-.19,0-.14-.12a2.92,2.92,0,0,0,.1-.4,1.45,1.45,0,0,1,.68-.76,11.2,11.2,0,0,1,2.25-1.24c.13,0,.14-.12.14-.23,0-1,.06-2.07.1-3.11.09-1.78.16-3.56.38-5.33.06-.51.15-1,.26-1.51a1.09,1.09,0,0,1,.51-.72l.12-.08a13.83,13.83,0,0,1,3.63-.92,39.61,39.61,0,0,1,6.25-.4,22.27,22.27,0,0,1,4.15.4,3.35,3.35,0,0,1,.62.17c0,.06-.08,0-.12,0-.46-.12-.93-.19-1.4-.27a.69.69,0,0,0-.32,0,.34.34,0,0,0-.25.54,1.75,1.75,0,0,0,.75,1l.08,0a3.38,3.38,0,0,0,.54.17.68.68,0,0,0,.37.09,3.88,3.88,0,0,0,.82.18c.28,0,.4-.09.41-.37s0-.44,0-.66a.53.53,0,0,0-.19-.45c.09,0,.14,0,.21.07a3.7,3.7,0,0,1,.46.31,1.65,1.65,0,0,1,.48,1.06c.19,1.18.29,2.37.37,3.56q.21,3.32.3,6.65c0,.11,0,.16.15.16a2.21,2.21,0,0,1,.91.29,14.85,14.85,0,0,1,2.07,1.23,1.24,1.24,0,0,1,.49.8c.07.34.06.34-.3.26l-2.59-.63c-.14,0-.15-.07-.13-.23a1.64,1.64,0,0,0,0-.73c-.06-.18-.23-.18-.38-.21s-.24,0-.23.19q.12,4.06.14,8.13a.49.49,0,0,0,0,.12.11.11,0,0,0,0,.11v1.31c0,1.22,0,2.45,0,3.68a1.09,1.09,0,0,0,0,.18,3.22,3.22,0,0,0,0,.82v.7a.39.39,0,0,0,0,.24v.08c0,1.07-.05,2.13-.08,3.2,0,2.22-.14,4.44-.32,6.66a20.78,20.78,0,0,1-.4,2.94,1.45,1.45,0,0,1-.88,1,11.5,11.5,0,0,1-3.15.91,34,34,0,0,1-6.29.45,25.3,25.3,0,0,1-3.26-.28h-.33l-.78-.2a6.48,6.48,0,0,1-1.48-.57,2,2,0,0,1-1-1.58c-.21-1.39-.32-2.78-.41-4.17-.16-2.54-.25-5.09-.32-7.63q-.15-6.09-.11-12.18c0-1.08,0-2.15,0-3.22,0-.05,0-.1,0-.16.05-.35,0-.71,0-1.1-.22.17-.14.37-.11.54s0,.26-.12.34c.09,0,.16,0,.19.08S439.78,203.63,439.75,203.68Zm18.19,20.25s0,.07.07.06v-.07s0-.08,0-.12v-4.34a.5.5,0,0,0,0-.12v-.09a.33.33,0,0,0,0-.17v-.4a.91.91,0,0,0,0-.33.21.21,0,0,0,0-.17.53.53,0,0,0,0-.28v-.08a.3.3,0,0,0,0-.21v-.12c0-.74,0-1.48,0-2.21,0-.05,0-.12-.08-.09h0l-1.68.19c-.1,0-.12.06-.12.15a31.77,31.77,0,0,0,.13,5.34,3,3,0,0,0,.34,1.25A20,20,0,0,0,457.94,223.93Zm-15.09-4.15h0s0,0,0-.06c.11-1.53.08-3.05,0-4.58,0-.1-.05-.11-.13-.12l-1.58-.19c-.16,0-.21,0-.21.18,0,1.13,0,2.25,0,3.38,0,1.66,0,3.31,0,5,0,.08,0,.18,0,.26l.72-.92a4,4,0,0,0,1-2A3.43,3.43,0,0,0,442.85,219.78Zm-.35-15.12c.3.84.62,1.67,1,2.49a.52.52,0,0,0,.75.27,5.57,5.57,0,0,1,.79-.25,12.65,12.65,0,0,1,2.11-.25c.07,0,.13,0,.17-.09a.77.77,0,0,1,.6-.5,4.59,4.59,0,0,1,1.11-.17,7.46,7.46,0,0,1,2.11.15.65.65,0,0,1,.6.53c0,.1.07.07.13.08.36,0,.72,0,1.08.08a8.4,8.4,0,0,1,2,.41.46.46,0,0,0,.66-.19,6.61,6.61,0,0,0,.57-1.41.07.07,0,0,0,0-.08,4.29,4.29,0,0,0,.24-.59c.29-.69.55-1.4.81-2.11a1,1,0,0,0-.57-1.32,2.7,2.7,0,0,0-.48-.16,27.86,27.86,0,0,0-5.39-.65c-1.19,0-2.38,0-3.58,0a29.77,29.77,0,0,0-3.12.35,1.65,1.65,0,0,0-.32.07,8.21,8.21,0,0,0-1.55.32.71.71,0,0,0-.51,1,5.6,5.6,0,0,0,.26.68A10.51,10.51,0,0,0,442.5,204.66Zm7.23,22.91h.51a42.06,42.06,0,0,0,4.89-.41c.54-.09,1.08-.18,1.61-.29a.61.61,0,0,0,.51-.81,3.45,3.45,0,0,0-.14-.42l-1.23-3a2.25,2.25,0,0,0-.3-.6.69.69,0,0,0-.85-.25,7.55,7.55,0,0,1-1.88.43,40.57,40.57,0,0,1-5.4.12,15.77,15.77,0,0,1-1.82-.16,6.4,6.4,0,0,1-1.12-.3c-.62-.23-.91-.11-1.17.49-.5,1.17-.95,2.36-1.39,3.56a.67.67,0,0,0,.56,1,24.2,24.2,0,0,0,2.81.46A43.12,43.12,0,0,0,449.73,227.57Zm-8.58-22.76,0,0v1.28q0,3.94,0,7.89c0,.14,0,.18.18.17.5,0,1,0,1.52,0,.17,0,.21-.05.2-.22v-5.24a2.17,2.17,0,0,0,0-.26A7.41,7.41,0,0,0,441.15,204.81Zm16.77.31-.14.14a10.22,10.22,0,0,0-1.16,1.75,4.39,4.39,0,0,0-.59,1.92c0,1.82,0,3.64,0,5.46,0,.12,0,.15.15.15.51,0,1,0,1.54,0,.18,0,.21-.06.21-.23v-8.43A4.81,4.81,0,0,0,457.92,205.12Zm-.5-3.25c0-.13,0-.26,0-.4l-.06-2.13a48.35,48.35,0,0,0-.34-5.24,1.73,1.73,0,0,0-.77-1.41,5.19,5.19,0,0,0-1.06-.45,15.18,15.18,0,0,0-3.55-.48,28.64,28.64,0,0,0-2.93,0,29.19,29.19,0,0,0-4.07.5,8.84,8.84,0,0,0-2.07.63,1.22,1.22,0,0,0-.74.89c-.05.24-.1.49-.14.74-.12.82-.17,1.65-.22,2.49-.09,1.52-.11,3-.14,4.56,0,.09.08.18,0,.29-.06-.1,0-.17,0-.25,0-.64.09-1.29.13-1.94a50.49,50.49,0,0,1,.53-5.49,1.23,1.23,0,0,1,.86-1.1l.12,0a16.13,16.13,0,0,1,3.51-.74,29.17,29.17,0,0,1,3.1-.22,21.73,21.73,0,0,1,4.77.27,4.83,4.83,0,0,1,1.77.6,1.14,1.14,0,0,1,.54.76c0,.14.06.27.08.4.23,1.59.35,3.19.46,4.79.06.89.12,1.78.17,2.67C457.43,201.69,457.5,201.78,457.42,201.87ZM445.6,191.15a30.06,30.06,0,0,1,7.34-.11l-.36-1a.19.19,0,0,0-.17-.15l-.83-.11a19,19,0,0,0-2.92,0,14.17,14.17,0,0,0-2.67.36c-.06,0-.12,0-.14.09C445.77,190.49,445.69,190.82,445.6,191.15Zm-3.72,36.44a3.94,3.94,0,0,0,0,1c.06.9.12,1.8.17,2.7a.82.82,0,0,0,.5.73,5.07,5.07,0,0,0,1.41.46,22.74,22.74,0,0,0,3.07.36,35.82,35.82,0,0,0,7-.28,8.15,8.15,0,0,0,2-.52.94.94,0,0,0,.59-.68c.21-1,.32-1.92.44-2.89a1.73,1.73,0,0,0,0-.6c-.05.2-.08.4-.11.6-.14.93-.29,1.87-.52,2.79a.76.76,0,0,1-.46.55,5,5,0,0,1-1.2.33,23.05,23.05,0,0,1-3.41.35,39,39,0,0,1-7.25-.26,5.2,5.2,0,0,1-1.51-.41c-.19-.1-.36-.2-.39-.44l-.21-1.93C442,228.81,441.93,228.2,441.88,227.59Zm.32-35.25c.38-.08.81-.23,1.25-.35a1.72,1.72,0,0,0,1.25-1.27v0a.31.31,0,0,0-.21-.46,1.13,1.13,0,0,0-.63,0,9,9,0,0,0-1.82.52.48.48,0,0,0-.33.51c0,.26,0,.53.09.79S442,192.35,442.2,192.34Zm-2.78,11.19h0l-.74.18h0Zm21,.7Zm1,.26-.05,0s0,0,0,0Zm-.2-.06h0Zm-.16,0H461l0,0Zm-1.39-.34h0Zm1.19.31h0Zm-.71-.19h0Zm-.15,0h0Zm-.14,0h0Zm-.32-.08h0Z" transform="translate(-277.23 -71.73)"/><text class="cls-7" transform="translate(42.93 424.85)">U</text><text class="cls-8" transform="translate(91.42 423.2)">bic<tspan class="cls-9" x="53.67" y="0">A</tspan><tspan x="79.36" y="0">pp</tspan></text></svg>