<svg id="Capa_1" data-name="Capa 1" xmlns="http://www.w3.org/2000/svg" viewBox="0 0 1419.02 1186.95"><defs><style>.cls-1,.cls-10,.cls-11,.cls-12,.cls-13,.cls-14,.cls-21,.cls-9{fill:#4470b4;}.cls-1{stroke:#222220;}.cls-1,.cls-17,.cls-18,.cls-19,.cls-3,.cls-4{stroke-miterlimit:10;}.cls-1,.cls-3,.cls-4{stroke-width:3px;}.cls-2,.cls-9{font-size:122.29px;font-family:BeeMarkerInk;}.cls-2,.cls-5,.cls-6,.cls-7{fill:#fff;}.cls-17,.cls-19,.cls-3{fill:none;}.cls-17,.cls-18,.cls-3,.cls-4{stroke:#68a8de;}.cls-15,.cls-18,.cls-22,.cls-4,.cls-8{fill:#68a8de;}.cls-11,.cls-6{font-size:33.32px;}.cls-11,.cls-12,.cls-6,.cls-7{font-family:Tahoma-Bold, Tahoma;}.cls-11,.cls-12,.cls-21,.cls-6,.cls-7,.cls-8{font-weight:700;}.cls-12,.cls-7{font-size:108.41px;}.cls-15,.cls-22,.cls-8{font-size:40px;}.cls-8{font-family:FiraSans-Bold, Fira Sans;}.cls-13{font-size:204.26px;}.cls-13,.cls-14{font-family:Mitr-Light, Mitr;font-weight:300;}.cls-14{font-size:65.94px;}.cls-15{font-family:CaviarDreams;}.cls-16{letter-spacing:0em;}.cls-17,.cls-18{stroke-width:8px;}.cls-19{stroke:#fff;stroke-width:0.93px;}.cls-20{fill:#1a1a1a;}.cls-21{font-size:69.34px;font-family:Mitr-Bold, Mitr;}.cls-22{font-family:Roboto-Medium, Roboto;font-weight:500;}.cls-23{letter-spacing:-0.02em;}</style></defs><title>logo_ubicapp</title><rect class="cls-1" x="1.5" y="1.5" width="867.89" height="614.92"/><text class="cls-2" transform="translate(313.37 556.35)">U</text><path class="cls-3" d="M297.35,180.23h.32c0,8.18-1.3,16.63.3,24.49a249.46,249.46,0,0,0,10.69,35.94,369.44,369.44,0,0,0,15.69,36.75c6.95,14,14.85,27.57,22.49,41.24,5.5,9.83,11.21,19.55,16.9,29.27,4.23,7.22,8.62,14.34,12.85,21.56,5.22,8.93,10.32,17.94,15.53,26.88,5.13,8.78,10.21,17.59,15.62,26.19a8.75,8.75,0,0,0,5.33,3.25c4.63.87,6.6-1.83,8.66-6,4.22-8.47,9.71-16.3,14.52-24.48,7.93-13.47,15.75-27,23.59-40.54q13.74-23.68,27.41-47.42c4.51-7.87,9.17-15.7,13.14-23.84,4.62-9.5,8.69-19.27,12.77-29C517,245.39,521,236.27,524,226.87c2.56-7.8,4.9-15.91,5.58-24,1-12.12.24-24.39.68-36.58.32-8.51-1.85-16.51-4.44-24.32-5.18-15.59-13.76-29.34-24.79-41.51a115.74,115.74,0,0,0-35.91-27c-14.2-6.8-28.84-11.77-45-10.57-6.62.5-13.33-.13-20,.16a69.25,69.25,0,0,0-13.86,1.73,118.18,118.18,0,0,0-61.81,38,121.12,121.12,0,0,0-22.65,38.72c-3,8.19-5.06,16.59-4.53,25.47C297.57,171.34,297.35,175.79,297.35,180.23Z" transform="translate(12.71 11.78)"/><path class="cls-4" d="M294.43,179.07a102.26,102.26,0,0,1,1.08-14.27,108.37,108.37,0,0,1,6.33-23.36,130.69,130.69,0,0,1,12-24.43,121.8,121.8,0,0,1,10.68-14.29,118.18,118.18,0,0,1,61.81-38l.74-.17a30,30,0,0,1,4.56-.53c2.17-.07,3.48-.45,8.56-1,4.54-.52,8-.71,11.68-.93,6.05-.35,10.71-.43,11.46-.43,8.91-.09,25.47,3.6,41.85,11.77a120.92,120.92,0,0,1,60.7,68.49,118.19,118.19,0,0,1,5.87,54.29c-1.41,11.64-4.13,19.86-7.69,30.65-2.43,7.39-5.22,14.16-10.87,27.66-4.08,9.74-8.15,19.51-12.77,29-4,8.14-8.63,16-13.14,23.84q-13.62,23.76-27.41,47.42c-7.84,13.53-15.66,27.07-23.59,40.54-4.81,8.18-10.3,16-14.52,24.48-2.06,4.15-4,6.85-8.66,6a8.75,8.75,0,0,1-5.33-3.25c-5.41-8.6-10.49-17.41-15.62-26.19-5.21-8.94-10.31-17.95-15.53-26.88-4.23-7.22-8.62-14.34-12.85-21.56-5.69-9.72-11.4-19.44-16.9-29.27-7.64-13.67-15.54-27.22-22.49-41.24a369.44,369.44,0,0,1-15.69-36.75c-3.85-10.48-7.71-21.17-10.69-35.94a202.11,202.11,0,0,1-3.1-20.89Zm231.81,1.45.66-.05c-.7-7.51-.84-15.13-2.2-22.52-3.26-17.7-10.88-33.54-21.88-47.77a106.71,106.71,0,0,0-41.68-32.92c-9.75-4.3-20.16-8.55-30.58-9.51C418,66.6,404.88,65.26,392.3,68.88c-8.88,2.56-17.92,5-26.28,8.81C341.71,88.83,323.67,106.9,312.27,131c-4.71,9.94-9.11,20.76-10.11,31.51-1.22,13.12-1.7,26.6.9,40a242.08,242.08,0,0,0,14.08,46.16c10.9,26.42,24.6,51.43,38.92,76.09,18.44,31.73,37.17,63.3,55.81,94.91.5.85,1.47,2,2.18,2s1.64-1.19,2.15-2.06q9.8-16.65,19.49-33.36,24.24-41.9,48.46-83.81c12.39-21.35,23.22-43.45,31.53-66.68,6.31-17.65,12-35.56,10.56-54.76C526.23,180.8,526.24,180.66,526.24,180.52Z" transform="translate(12.71 11.78)"/><path class="cls-3" d="M527.3,181.67a127.35,127.35,0,0,1-1.54,20.53,131.9,131.9,0,0,1-10.08,33.5c-19.56,44.67-31.53,66.68-31.53,66.68q-24.3,41.87-48.46,83.81Q426,402.92,416.2,419.55c-.51.87-1.4,2-2.15,2.06s-1.68-1.14-2.18-2c-18.64-31.61-37.37-63.18-55.81-94.91-14.32-24.66-28-49.67-38.92-76.09a242.08,242.08,0,0,1-14.08-46.16c-2.6-13.38-2.12-26.86-.9-40,1-10.75,5.4-21.57,10.11-31.51,11.4-24.07,29.44-42.14,53.75-53.28,8.36-3.83,17.4-6.25,26.28-8.81,12.58-3.62,25.68-2.28,38.26-1.13,10.42,1,20.83,5.21,30.58,9.51a106.71,106.71,0,0,1,41.68,32.92A115.5,115.5,0,0,1,524.7,158a110.63,110.63,0,0,1,1.95,15.28Z" transform="translate(12.71 11.78)"/><text class="cls-2" transform="translate(390.33 283.65)">U</text><circle class="cls-5" cx="407.02" cy="186.29" r="7.99"/><text class="cls-6" transform="translate(441.25 199)">&lt;</text><text class="cls-7" transform="translate(438.94 478.46) rotate(90)">&lt;</text><text class="cls-8" transform="translate(381.87 556.35)">bic</text><text class="cls-8" transform="translate(509.07 556.35)">pp</text><text class="cls-9" transform="translate(1168.03 550.68)">U</text><path class="cls-3" d="M303.59,839h.31c0,8.18-1.29,16.63.3,24.49a249.46,249.46,0,0,0,10.69,35.94,367.18,367.18,0,0,0,15.7,36.75c6.94,14,14.84,27.57,22.48,41.24,5.5,9.83,11.21,19.55,16.9,29.27,4.23,7.22,8.63,14.34,12.85,21.56,5.23,8.93,10.32,17.94,15.54,26.88,5.12,8.78,10.2,17.59,15.61,26.19a8.75,8.75,0,0,0,5.33,3.25c4.63.87,6.6-1.83,8.67-6,4.22-8.47,9.7-16.3,14.52-24.48,7.92-13.47,15.74-27,23.59-40.54,9.15-15.79,18.33-31.58,27.4-47.42,4.51-7.87,9.17-15.7,13.14-23.84,4.62-9.5,8.69-19.27,12.77-29,3.83-9.14,7.8-18.26,10.88-27.66,2.55-7.8,4.89-15.91,5.57-24,1-12.12.24-24.39.69-36.58.31-8.51-1.86-16.51-4.45-24.32-5.18-15.59-13.76-29.34-24.79-41.51a115.51,115.51,0,0,0-35.91-27c-14.2-6.8-28.83-11.77-45-10.57-6.62.5-13.32-.13-20,.16a69.26,69.26,0,0,0-13.87,1.73,118.26,118.26,0,0,0-61.81,38,121.3,121.3,0,0,0-22.65,38.72c-2.95,8.19-5.06,16.59-4.53,25.47C303.8,830.14,303.59,834.59,303.59,839Z" transform="translate(12.71 11.78)"/><path class="cls-4" d="M300.67,837.87a99.27,99.27,0,0,1,1.08-14.27,108.46,108.46,0,0,1,6.32-23.36,131.36,131.36,0,0,1,12-24.43,121.8,121.8,0,0,1,10.68-14.29,118.26,118.26,0,0,1,61.81-38l.75-.17a29.74,29.74,0,0,1,4.55-.53c2.17-.07,3.49-.45,8.57-1,4.53-.52,8-.71,11.67-.93,6.05-.35,10.71-.43,11.46-.43,8.92-.09,25.48,3.6,41.85,11.77a120.92,120.92,0,0,1,60.7,68.49A118.36,118.36,0,0,1,538,855c-1.42,11.64-4.13,19.86-7.69,30.65-2.44,7.39-5.22,14.16-10.88,27.66-4.08,9.74-8.15,19.51-12.77,29-4,8.14-8.63,16-13.14,23.84-9.07,15.84-18.25,31.63-27.4,47.42-7.85,13.53-15.67,27.07-23.59,40.54-4.82,8.18-10.3,16-14.52,24.48-2.07,4.15-4,6.85-8.67,6a8.75,8.75,0,0,1-5.33-3.25c-5.41-8.6-10.49-17.41-15.61-26.19-5.22-8.94-10.31-18-15.54-26.88-4.22-7.22-8.62-14.34-12.85-21.56-5.69-9.72-11.4-19.44-16.9-29.27-7.64-13.67-15.54-27.22-22.48-41.24a367.18,367.18,0,0,1-15.7-36.75c-3.85-10.48-7.7-21.17-10.69-35.94a202.11,202.11,0,0,1-3.1-20.89Zm231.8,1.45.66-.05c-.69-7.51-.84-15.13-2.2-22.52-3.25-17.7-10.88-33.54-21.88-47.77a106.71,106.71,0,0,0-41.68-32.92c-9.75-4.3-20.16-8.55-30.58-9.51-12.58-1.15-25.68-2.49-38.26,1.13-8.88,2.56-17.92,5-26.27,8.81-24.32,11.14-42.36,29.21-53.76,53.28-4.71,9.94-9.11,20.76-10.11,31.51-1.22,13.12-1.69,26.6.91,40a242.08,242.08,0,0,0,14.08,46.16c10.89,26.42,24.59,51.43,38.92,76.09,18.43,31.73,37.16,63.3,55.8,94.91.51.85,1.47,2,2.18,2s1.65-1.19,2.15-2.06q9.79-16.65,19.49-33.36,24.25-41.9,48.46-83.81c12.39-21.35,23.22-43.45,31.53-66.68,6.31-17.65,12-35.56,10.56-54.76C532.46,839.6,532.47,839.46,532.47,839.32Z" transform="translate(12.71 11.78)"/><path class="cls-3" d="M533.53,840.47A127.35,127.35,0,0,1,532,861a131.07,131.07,0,0,1-10.08,33.5c-19.56,44.67-31.53,66.68-31.53,66.68Q466.08,1003,441.92,1045q-9.68,16.73-19.49,33.36c-.5.87-1.4,2-2.15,2.06s-1.67-1.14-2.18-2c-18.64-31.61-37.37-63.18-55.8-94.91-14.33-24.66-28-49.67-38.92-76.09a242.08,242.08,0,0,1-14.08-46.16c-2.6-13.38-2.13-26.86-.91-40,1-10.75,5.4-21.57,10.11-31.51,11.4-24.07,29.44-42.14,53.76-53.28,8.35-3.83,17.39-6.25,26.27-8.81,12.58-3.62,25.68-2.28,38.26-1.13,10.42,1,20.83,5.21,30.58,9.51A106.71,106.71,0,0,1,509.05,769a115.25,115.25,0,0,1,21.88,47.77,110.63,110.63,0,0,1,2,15.28Z" transform="translate(12.71 11.78)"/><path class="cls-3" d="M1167.3,174.75h.32c0,8.19-1.3,16.63.3,24.49a247.83,247.83,0,0,0,10.69,35.94,369.44,369.44,0,0,0,15.69,36.75c7,14,14.85,27.57,22.49,41.24,5.5,9.83,11.21,19.55,16.9,29.28,4.23,7.22,8.62,14.33,12.85,21.55,5.22,8.94,10.32,17.95,15.53,26.88s10.2,17.59,15.62,26.19a8.65,8.65,0,0,0,5.33,3.25c4.63.87,6.6-1.83,8.66-6,4.22-8.47,9.71-16.3,14.52-24.48,7.93-13.47,15.75-27,23.59-40.54q13.74-23.68,27.41-47.42c4.51-7.87,9.17-15.69,13.13-23.84,4.63-9.49,8.7-19.26,12.78-29,3.82-9.14,7.79-18.26,10.87-27.66,2.56-7.8,4.9-15.91,5.58-24,1-12.12.23-24.39.68-36.57.32-8.52-1.85-16.52-4.45-24.33C1390.62,120.87,1382,107.11,1371,95a115.77,115.77,0,0,0-35.91-27c-14.2-6.79-28.84-11.77-45-10.56-6.63.49-13.33-.13-20,.15a70,70,0,0,0-13.86,1.73,118.13,118.13,0,0,0-61.81,38A121.17,121.17,0,0,0,1171.78,136c-3,8.19-5,16.59-4.52,25.47C1167.52,165.86,1167.3,170.31,1167.3,174.75Z" transform="translate(12.71 11.78)"/><path class="cls-4" d="M1164.38,173.59a102.26,102.26,0,0,1,1.08-14.27,108.46,108.46,0,0,1,6.32-23.36,131.48,131.48,0,0,1,12-24.43,119.78,119.78,0,0,1,10.68-14.28,118.13,118.13,0,0,1,61.81-38c.27-.07.5-.12.74-.16a30.55,30.55,0,0,1,4.56-.54c2.17-.06,3.48-.45,8.56-1,4.54-.51,8-.71,11.68-.93,6-.35,10.71-.42,11.46-.43,8.91-.09,25.47,3.6,41.85,11.77a120.94,120.94,0,0,1,60.69,68.49,118,118,0,0,1,5.88,54.29c-1.42,11.64-4.13,19.86-7.69,30.65-2.44,7.39-5.22,14.16-10.87,27.66-4.08,9.75-8.15,19.52-12.78,29-4,8.15-8.62,16-13.13,23.84q-13.62,23.76-27.41,47.42c-7.84,13.53-15.66,27.07-23.59,40.54-4.81,8.18-10.3,16-14.52,24.48-2.06,4.15-4,6.85-8.66,6a8.65,8.65,0,0,1-5.33-3.25c-5.42-8.6-10.49-17.41-15.62-26.19s-10.31-17.94-15.53-26.88c-4.23-7.22-8.62-14.33-12.85-21.55-5.69-9.73-11.4-19.45-16.9-29.28-7.64-13.67-15.54-27.22-22.49-41.24a369.44,369.44,0,0,1-15.69-36.75c-3.85-10.48-7.71-21.17-10.69-35.94a205.37,205.37,0,0,1-3.11-20.89Zm231.81,1.46.66-.06c-.7-7.51-.84-15.13-2.2-22.51-3.26-17.7-10.88-33.55-21.89-47.77a106.61,106.61,0,0,0-41.67-32.93c-9.75-4.29-20.16-8.55-30.58-9.51-12.58-1.15-25.68-2.49-38.27,1.13-8.87,2.56-17.91,5-26.27,8.81-24.31,11.14-42.36,29.21-53.76,53.28-4.7,9.94-9.1,20.76-10.1,31.51-1.22,13.12-1.7,26.6.9,40a242.2,242.2,0,0,0,14.08,46.15c10.9,26.42,24.6,51.43,38.92,76.09,18.44,31.73,37.17,63.3,55.81,94.91.5.85,1.46,2,2.18,2s1.64-1.19,2.15-2.05q9.8-16.65,19.49-33.37,24.24-41.9,48.46-83.81a404.16,404.16,0,0,0,31.53-66.68c6.31-17.65,12-35.56,10.56-54.76C1396.18,175.32,1396.19,175.18,1396.19,175.05Z" transform="translate(12.71 11.78)"/><path class="cls-3" d="M1397.25,176.19a127.54,127.54,0,0,1-1.54,20.54,131.79,131.79,0,0,1-10.08,33.49c-19.56,44.67-31.53,66.68-31.53,66.68q-24.3,41.87-48.46,83.81-9.69,16.73-19.49,33.37c-.51.86-1.4,2-2.15,2.05s-1.68-1.14-2.18-2c-18.64-31.61-37.37-63.18-55.81-94.91-14.32-24.66-28-49.67-38.92-76.09A242.2,242.2,0,0,1,1173,197c-2.6-13.39-2.12-26.87-.9-40,1-10.75,5.4-21.57,10.1-31.51,11.4-24.07,29.45-42.14,53.76-53.28,8.36-3.82,17.4-6.25,26.27-8.81,12.59-3.62,25.69-2.28,38.27-1.13,10.42,1,20.83,5.22,30.58,9.51a106.61,106.61,0,0,1,41.67,32.93,115.22,115.22,0,0,1,21.89,47.77,111.82,111.82,0,0,1,1.95,15.28Z" transform="translate(12.71 11.78)"/><text class="cls-9" transform="translate(1260.28 278.17)">U</text><circle class="cls-10" cx="1276.97" cy="180.81" r="7.99"/><text class="cls-11" transform="translate(1311.2 193.52)">&lt;</text><text class="cls-12" transform="translate(1291.42 472.98) rotate(90)">&lt;</text><text class="cls-8" transform="translate(1234.35 550.87)">bic</text><text class="cls-8" transform="translate(1361.56 550.87)">pp</text><text class="cls-13" transform="translate(360.44 974.15)">U</text><text class="cls-14" transform="translate(341.87 1162.42)">U</text><text class="cls-15" transform="translate(390.33 1160.73)">bic<tspan class="cls-16" x="50.04" y="0">A</tspan><tspan x="74.4" y="0">pp</tspan></text><path class="cls-17" d="M1167,807.78h.32c0,8.18-1.3,16.62.3,24.48a248.33,248.33,0,0,0,10.69,36A371.46,371.46,0,0,0,1194,905c7,14,14.85,27.57,22.49,41.23,5.5,9.84,11.21,19.55,16.9,29.28,4.22,7.22,8.62,14.34,12.85,21.56,5.22,8.93,10.32,17.94,15.53,26.88,5.13,8.78,10.2,17.59,15.62,26.19a8.64,8.64,0,0,0,5.33,3.24c4.63.87,6.6-1.83,8.66-6,4.22-8.46,9.71-16.29,14.52-24.47,7.93-13.48,15.75-27,23.59-40.54q13.74-23.7,27.41-47.42c4.51-7.88,9.16-15.7,13.13-23.85,4.63-9.49,8.7-19.26,12.78-29,3.82-9.13,7.79-18.25,10.87-27.65,2.56-7.8,4.9-15.92,5.58-24,1-12.13.23-24.39.68-36.58.32-8.51-1.85-16.52-4.45-24.32-5.17-15.59-13.75-29.34-24.78-41.51a115.59,115.59,0,0,0-35.91-27c-14.2-6.8-28.84-11.77-45-10.57-6.63.49-13.33-.13-20,.15a69.26,69.26,0,0,0-13.86,1.74,118.05,118.05,0,0,0-61.81,38A121.28,121.28,0,0,0,1171.52,769c-3,8.2-5,16.6-4.53,25.48C1167.26,798.88,1167,803.34,1167,807.78Z" transform="translate(12.71 11.78)"/><path class="cls-18" d="M1164.12,806.62a102.16,102.16,0,0,1,1.08-14.27,108.57,108.57,0,0,1,6.32-23.37,131.81,131.81,0,0,1,12-24.42,121.06,121.06,0,0,1,10.69-14.29,118.05,118.05,0,0,1,61.81-38l.74-.17a30,30,0,0,1,4.56-.53c2.17-.07,3.48-.46,8.56-1,4.54-.51,8-.71,11.68-.92,6-.36,10.71-.43,11.46-.44,8.91-.09,25.47,3.61,41.85,11.78a120.86,120.86,0,0,1,60.69,68.49,118,118,0,0,1,5.88,54.29c-1.42,11.64-4.13,19.85-7.69,30.65-2.44,7.39-5.22,14.15-10.87,27.65-4.08,9.75-8.15,19.52-12.78,29-4,8.15-8.62,16-13.13,23.85q-13.62,23.76-27.41,47.42c-7.84,13.52-15.66,27.06-23.59,40.54-4.81,8.18-10.3,16-14.52,24.47-2.06,4.15-4,6.85-8.66,6a8.64,8.64,0,0,1-5.33-3.24c-5.42-8.6-10.49-17.41-15.62-26.19-5.21-8.94-10.31-17.95-15.53-26.88-4.23-7.22-8.63-14.34-12.85-21.56-5.69-9.73-11.4-19.44-16.9-29.28C1208.89,932.53,1201,919,1194,905a371.46,371.46,0,0,1-15.69-36.75c-3.85-10.49-7.71-21.18-10.69-36a205.65,205.65,0,0,1-3.11-20.88Zm231.81,1.45.66-.06c-.7-7.51-.84-15.12-2.2-22.51-3.26-17.7-10.88-33.54-21.89-47.77a106.49,106.49,0,0,0-41.67-32.92c-9.75-4.3-20.16-8.56-30.58-9.51-12.58-1.15-25.68-2.49-38.27,1.13-8.87,2.55-17.92,5-26.27,8.81-24.31,11.14-42.36,29.21-53.76,53.28-4.7,9.93-9.1,20.76-10.1,31.51-1.22,13.12-1.7,26.6.9,40a242.3,242.3,0,0,0,14.08,46.16c10.9,26.41,24.6,51.42,38.92,76.08,18.44,31.74,37.17,63.3,55.81,94.92.5.85,1.46,2,2.18,2s1.64-1.2,2.15-2.06q9.79-16.65,19.49-33.36,24.24-41.91,48.46-83.82c12.39-21.34,23.22-43.44,31.53-66.68,6.31-17.65,12-35.55,10.56-54.75C1395.92,808.35,1395.93,808.21,1395.93,808.07Z" transform="translate(12.71 11.78)"/><path class="cls-17" d="M1397,809.21a127.46,127.46,0,0,1-1.54,20.54,131.65,131.65,0,0,1-10.08,33.49c-19.56,44.68-31.53,66.68-31.53,66.68q-24.3,41.87-48.46,83.82-9.69,16.71-19.49,33.36c-.51.86-1.4,2-2.15,2.06s-1.68-1.14-2.18-2c-18.64-31.62-37.37-63.18-55.81-94.92-14.32-24.66-28-49.67-38.92-76.08A242.3,242.3,0,0,1,1172.75,830c-2.6-13.38-2.12-26.86-.9-40,1-10.75,5.4-21.58,10.1-31.51,11.4-24.07,29.45-42.14,53.76-53.28,8.35-3.83,17.4-6.26,26.27-8.81,12.59-3.62,25.69-2.28,38.27-1.13,10.42,1,20.83,5.21,30.58,9.51a106.49,106.49,0,0,1,41.67,32.92,115.29,115.29,0,0,1,21.89,47.77,112,112,0,0,1,1.95,15.28Z" transform="translate(12.71 11.78)"/><path class="cls-10" d="M1213.53,873.32V810.16c0-3.1,0-9.47.29-16.3h41c-.2,5.34-.33,11.43-.33,16.3v63.16c0,19.2,12.9,34.81,28.77,34.81S1312,892.52,1312,873.32V810.16c0-2.66-.3-10-.66-16.3h41c.41,7.63.6,14.94.6,16.3v63.16c0,41.76-31.26,75.72-69.68,75.72S1213.53,915.08,1213.53,873.32Z" transform="translate(12.71 11.78)"/><path class="cls-19" d="M1250.3,798.2c-.12,4.2-.19,8.45-.19,12v63.16c0,21.59,14.85,39.15,33.11,39.15s33.11-17.56,33.11-39.15V810.16c0-2.2-.19-7.16-.43-12h32.27c.27,6,.4,11,.4,12v63.16c0,39.37-29.32,71.39-65.35,71.39s-65.35-32-65.35-71.39V810.16c0-2.46,0-6.88.15-12Z" transform="translate(12.71 11.78)"/><path class="cls-20" d="M1230.94,811.27h1.24v1.24h1.28v9.29l-2.53,0Zm98.47,8.59h2.48V820h0v9.29h-2.47v-.13h0Zm-98.47,16.78,2.53,0V846l-2.53,0Zm98.47,7.37h2.48v.14h0v9.28h-2.47v-.13h0Zm-98.47,16.78,2.53,0v9.28l-2.53,0Zm98.47,7.37h2.48v.14h0v3.24c0,2.06-.1,4.13-.29,6.15l-2.47-.24s0-.08,0-.12h0c.18-1.91.27-3.85.27-5.78Zm-94.58,16.41v0h0a58.57,58.57,0,0,0,2.65,8.69l-2.31.91v0l0,0a60.93,60.93,0,0,1-2.76-9.07ZM1326,891.5l2.34.83,0,.12h0a58.91,58.91,0,0,1-3.89,8.64l-2.17-1.19.06-.1,0,0A57,57,0,0,0,1326,891.5ZM1244.45,906l0,0,0,0a51.24,51.24,0,0,0,6,6.8l-1.71,1.8,0,0,0,0a54.81,54.81,0,0,1-6.26-7.13Zm69.27,5.48,1.78,1.73-.08.08,0,0a51.34,51.34,0,0,1-7.23,6.16l-1.43-2,.09-.06,0,0A50.16,50.16,0,0,0,1313.72,911.45Zm-51.41,9.62a43.65,43.65,0,0,0,8.45,3.13l-.61,2.4-.08,0v0a47,47,0,0,1-8.92-3.32l1.09-2.23.06,0Zm31.62,2.62.72,2.37-.09,0v0a46.05,46.05,0,0,1-9.36,1.79l-.2-2.47h.08v0A42.46,42.46,0,0,0,1293.93,923.69Z" transform="translate(12.71 11.78)"/><path class="cls-5" d="M1231.84,812.17h1.24v1.23h1.27v9.29l-2.52,0Zm98.46,8.58h2.48v.14h0v9.28h-2.47V830h0Zm-98.46,16.78,2.52,0v9.29l-2.52,0Zm98.46,7.37h2.48V845h0v9.29h-2.47v-.14h0Zm-98.46,16.78,2.52,0V871l-2.52,0Zm98.46,7.37h2.48v.14h0v3.24c0,2.06-.1,4.13-.29,6.16l-2.47-.24a.62.62,0,0,0,0-.13h0c.18-1.9.27-3.85.27-5.78Zm-94.58,16.41v0h0a59.06,59.06,0,0,0,2.65,8.7l-2.31.9v0l0,0a61.13,61.13,0,0,1-2.75-9.06Zm91.18,6.93,2.34.83s0,.08,0,.12h0a58.39,58.39,0,0,1-3.88,8.64l-2.17-1.19,0-.1,0,0A56.1,56.1,0,0,0,1326.9,892.39Zm-81.55,14.47,0,0,0,0a52.06,52.06,0,0,0,6,6.81l-1.7,1.79,0,0,0,0a54.14,54.14,0,0,1-6.27-7.13Zm69.26,5.48,1.78,1.73-.08.08,0,0a52.75,52.75,0,0,1-7.24,6.17l-1.42-2,.08-.06,0,0A49.57,49.57,0,0,0,1314.61,912.34ZM1263.2,922a43.9,43.9,0,0,0,8.45,3.13l-.61,2.4-.07,0v0a46.86,46.86,0,0,1-8.93-3.32l1.1-2.23.06,0Zm31.62,2.62.72,2.37-.09,0v0a46.05,46.05,0,0,1-9.36,1.79l-.2-2.47h.08v0A42.49,42.49,0,0,0,1294.82,924.58Z" transform="translate(12.71 11.78)"/><path class="cls-5" d="M1322.64,817.17c-.67.12-1.32.31-2,.47l-.9.21c-.1,0-.19,0-.14-.11a2.92,2.92,0,0,0,.1-.4,1.41,1.41,0,0,1,.68-.76,11.2,11.2,0,0,1,2.25-1.24.2.2,0,0,0,.14-.23c0-1,.06-2.08.1-3.11.09-1.78.16-3.56.38-5.33.06-.51.15-1,.26-1.51a1.1,1.1,0,0,1,.51-.73l.12-.08a14.21,14.21,0,0,1,3.63-.91,38.45,38.45,0,0,1,6.25-.4,22.27,22.27,0,0,1,4.15.4,2.72,2.72,0,0,1,.62.17c0,.06-.08,0-.12,0a13.3,13.3,0,0,0-1.4-.27.69.69,0,0,0-.32,0,.34.34,0,0,0-.25.54,1.72,1.72,0,0,0,.75,1l.08,0a3.35,3.35,0,0,0,.54.16.69.69,0,0,0,.37.1,5.71,5.71,0,0,0,.82.18c.28,0,.4-.09.41-.38s0-.43,0-.65a.51.51,0,0,0-.19-.45c.09,0,.14.05.21.07a3.7,3.7,0,0,1,.46.31,1.63,1.63,0,0,1,.48,1.06c.19,1.17.29,2.36.37,3.56.14,2.21.24,4.43.3,6.64,0,.12,0,.16.15.17a2.21,2.21,0,0,1,.91.29,13.94,13.94,0,0,1,2.07,1.23,1.2,1.2,0,0,1,.49.8c.07.34.06.34-.3.25l-2.59-.62c-.14,0-.15-.07-.13-.23a1.64,1.64,0,0,0,0-.73c-.06-.19-.23-.18-.38-.22s-.24,0-.23.2q.12,4.05.14,8.12a.49.49,0,0,0,0,.12.13.13,0,0,0,0,.12v1.31c0,1.22,0,2.45,0,3.67a1.28,1.28,0,0,0,0,.19,3.21,3.21,0,0,0,0,.82v.69a.42.42,0,0,0,0,.25V832c0,1.07,0,2.13-.08,3.19-.05,2.23-.14,4.45-.32,6.67a20.44,20.44,0,0,1-.4,2.93,1.47,1.47,0,0,1-.88,1,11.14,11.14,0,0,1-3.15.9,33.12,33.12,0,0,1-6.29.45,22.18,22.18,0,0,1-3.26-.28H1327l0,0h-.17c-.26-.06-.52-.12-.78-.2a6.45,6.45,0,0,1-1.48-.56,2,2,0,0,1-1-1.58c-.21-1.39-.32-2.78-.41-4.18-.16-2.54-.25-5.08-.32-7.63q-.15-6.09-.11-12.18c0-1.07,0-2.14,0-3.21,0-.05,0-.11,0-.16,0-.36,0-.71,0-1.11-.22.18-.14.37-.11.55s0,.26-.12.34c.09,0,.16,0,.19.08S1322.67,817.12,1322.64,817.17Zm18.19,20.24s0,.08.07.06v-.06s0-.08,0-.13v-4.34a.5.5,0,0,0,0-.12v-.08a.33.33,0,0,0,0-.17v-.41a.86.86,0,0,0,0-.32.2.2,0,0,0,0-.17.53.53,0,0,0,0-.28v-.09a.28.28,0,0,0,0-.2V831c0-.73,0-1.47,0-2.2,0,0,0-.13-.08-.1h0l-1.68.19c-.1,0-.12,0-.12.14a31.86,31.86,0,0,0,.13,5.35,3,3,0,0,0,.34,1.25A19.85,19.85,0,0,0,1340.83,837.41Zm-15.09-4.15h0s0,0,0,0c.11-1.53.08-3.06,0-4.59,0-.09,0-.1-.13-.11-.53-.06-1.06-.12-1.58-.2-.16,0-.21,0-.21.19,0,1.12,0,2.25,0,3.38,0,1.65,0,3.31,0,5,0,.08,0,.17,0,.26l.72-.93a3.93,3.93,0,0,0,1-1.95A3.51,3.51,0,0,0,1325.74,833.26Zm-.35-15.11c.3.84.62,1.67,1,2.49a.52.52,0,0,0,.75.27,5.57,5.57,0,0,1,.79-.25,12.67,12.67,0,0,1,2.11-.26c.07,0,.13,0,.17-.08a.77.77,0,0,1,.6-.5,4.59,4.59,0,0,1,1.11-.17,7.11,7.11,0,0,1,2.11.14c.3.07.54.2.6.53,0,.1.07.08.13.08l1.08.09a7.93,7.93,0,0,1,2,.41.46.46,0,0,0,.66-.19,6.83,6.83,0,0,0,.57-1.41.07.07,0,0,0,0-.08,4.87,4.87,0,0,0,.24-.59c.29-.7.55-1.4.81-2.11a1,1,0,0,0-.57-1.33,3.82,3.82,0,0,0-.48-.15,28.67,28.67,0,0,0-5.39-.66c-1.19,0-2.38,0-3.58,0a25.24,25.24,0,0,0-3.12.35,1.13,1.13,0,0,0-.32.06,9.1,9.1,0,0,0-1.55.33.71.71,0,0,0-.51,1,5.17,5.17,0,0,0,.26.69A11.11,11.11,0,0,0,1325.39,818.15Zm7.23,22.9h.51a38.09,38.09,0,0,0,4.89-.41c.54-.08,1.08-.18,1.61-.29a.6.6,0,0,0,.51-.8,3.45,3.45,0,0,0-.14-.42l-1.23-3a2.19,2.19,0,0,0-.3-.59.7.7,0,0,0-.85-.26,7.13,7.13,0,0,1-1.88.43,37.46,37.46,0,0,1-5.4.12,15.76,15.76,0,0,1-1.82-.15,5.66,5.66,0,0,1-1.12-.31c-.62-.22-.91-.11-1.17.5-.5,1.17-1,2.36-1.39,3.55a.68.68,0,0,0,.56,1,26.54,26.54,0,0,0,2.81.46A40.44,40.44,0,0,0,1332.62,841.05ZM1324,818.3l0,0v1.28c0,2.63,0,5.25,0,7.88,0,.15,0,.18.18.18h1.52c.17,0,.21,0,.2-.21v-5.24a2.44,2.44,0,0,0,0-.27A7.38,7.38,0,0,0,1324,818.3Zm16.77.3-.14.15a10.22,10.22,0,0,0-1.16,1.75,4.35,4.35,0,0,0-.59,1.91c0,1.83,0,3.65,0,5.47,0,.12,0,.14.15.14.51,0,1,0,1.54,0,.18,0,.21-.06.21-.23v-8.43A4.94,4.94,0,0,0,1340.81,818.6Zm-.5-3.24c0-.14,0-.26,0-.4l-.06-2.13a48.7,48.7,0,0,0-.34-5.25,1.71,1.71,0,0,0-.77-1.4,4.69,4.69,0,0,0-1.06-.45,14.68,14.68,0,0,0-3.55-.49c-1,0-2,0-2.93,0a29.19,29.19,0,0,0-4.07.5,8.39,8.39,0,0,0-2.07.63,1.2,1.2,0,0,0-.74.88c0,.25-.1.5-.14.75-.12.82-.17,1.65-.22,2.48-.09,1.52-.11,3-.14,4.57,0,.09.08.18,0,.29-.06-.1,0-.17,0-.25,0-.65.09-1.29.13-1.94a50.67,50.67,0,0,1,.53-5.5,1.23,1.23,0,0,1,.86-1.09l.12,0a15.56,15.56,0,0,1,3.51-.74c1-.14,2.06-.19,3.1-.23a22.37,22.37,0,0,1,4.77.27,4.67,4.67,0,0,1,1.77.61,1.14,1.14,0,0,1,.54.76c0,.13.06.26.08.4.23,1.59.35,3.19.46,4.78.06.9.12,1.79.17,2.68C1340.32,815.18,1340.39,815.27,1340.31,815.36Zm-11.82-10.72a29.57,29.57,0,0,1,7.34-.11c-.12-.36-.24-.69-.36-1a.17.17,0,0,0-.17-.14c-.27,0-.55-.09-.83-.11a19,19,0,0,0-2.92,0,15.05,15.05,0,0,0-2.67.37c-.06,0-.12,0-.14.09C1328.66,804,1328.58,804.3,1328.49,804.64Zm-3.72,36.43a4,4,0,0,0,0,1c.06.9.12,1.79.17,2.69a.83.83,0,0,0,.5.74,5.42,5.42,0,0,0,1.41.46,24.45,24.45,0,0,0,3.07.35,34.34,34.34,0,0,0,7-.28,7.35,7.35,0,0,0,2-.52.93.93,0,0,0,.59-.68c.21-.95.32-1.92.44-2.89a1.71,1.71,0,0,0,0-.6c0,.2-.08.4-.11.6-.14.94-.29,1.87-.52,2.79a.77.77,0,0,1-.46.56,5,5,0,0,1-1.2.33,23.05,23.05,0,0,1-3.41.35,39,39,0,0,1-7.25-.27,4.9,4.9,0,0,1-1.51-.41.57.57,0,0,1-.39-.44l-.21-1.93C1324.88,842.29,1324.82,841.68,1324.77,841.07Zm.32-35.24c.38-.08.81-.24,1.25-.35a1.73,1.73,0,0,0,1.25-1.27v0a.31.31,0,0,0-.21-.46,1,1,0,0,0-.63,0,7.86,7.86,0,0,0-1.82.52.48.48,0,0,0-.33.5c0,.27.05.53.09.79S1324.85,805.84,1325.09,805.83ZM1322.31,817h0l-.74.19h0Zm21,.7Zm1,.25s0,0,0,0,0,0,0,0Zm-.2-.05h-.06v0s0,0,0,0Zm-.16,0,0,0h0Zm-1.39-.35,0,0h0l0,0Zm1.19.31h0Zm-.71-.18h0Zm-.15,0h0Zm-.14,0h-.07l0,0Zm-.32-.08,0,0h0Z" transform="translate(12.71 11.78)"/><text class="cls-21" transform="translate(1215.76 1121.84)">U</text><text class="cls-22" transform="translate(1264.25 1120.19)">bic<tspan class="cls-23" x="53.67" y="0">A</tspan><tspan x="79.36" y="0">pp</tspan></text></svg>