<svg xmlns="http://www.w3.org/2000/svg" viewBox="0 0 246.19 455.91"><defs><style>.cls-1,.cls-4{fill:none;}.cls-1,.cls-2{stroke:#68a8de;stroke-width:8px;}.cls-1,.cls-2,.cls-4{stroke-miterlimit:10;}.cls-2,.cls-8{fill:#68a8de;}.cls-3,.cls-7{fill:#4470b4;}.cls-4{stroke:#fff;stroke-width:0.93px;}.cls-5{fill:#1a1a1a;}.cls-6{fill:#fff;}.cls-7{font-size:69.34px;font-family:Mitr-Bold, Mitr;font-weight:700;}.cls-8{font-size:40px;font-family:Roboto-Medium, Roboto;font-weight:500;}.cls-9{letter-spacing:-0.02em;}</style></defs><title>Recurso 1</title><g id="Capa_2" data-name="Capa 2"><g id="Capa_1-2" data-name="Capa 1"><path class="cls-1" d="M6.92,122.57h.32c0,8.18-1.3,16.62.3,24.48A248.33,248.33,0,0,0,18.23,183a370.28,370.28,0,0,0,15.69,36.74c6.95,14,14.85,27.57,22.49,41.24,5.5,9.84,11.21,19.55,16.9,29.28,4.22,7.22,8.62,14.34,12.85,21.56,5.22,8.93,10.32,17.94,15.53,26.88,5.13,8.78,10.2,17.59,15.62,26.19a8.64,8.64,0,0,0,5.33,3.24c4.63.87,6.6-1.83,8.66-6,4.22-8.47,9.71-16.29,14.52-24.48,7.93-13.47,15.75-27,23.59-40.54q13.74-23.69,27.41-47.42C201.33,241.84,206,234,210,225.87c4.63-9.49,8.7-19.26,12.78-29,3.82-9.14,7.79-18.26,10.87-27.65,2.56-7.81,4.9-15.92,5.58-24,1-12.13.23-24.39.68-36.58.32-8.51-1.85-16.52-4.45-24.32-5.17-15.59-13.75-29.35-24.78-41.51a115.59,115.59,0,0,0-35.91-27C160.52,9,145.88,4,129.71,5.21c-6.63.49-13.33-.13-20,.15A70,70,0,0,0,95.87,7.09a118.13,118.13,0,0,0-61.81,38A121.28,121.28,0,0,0,11.4,83.77c-3,8.19-5.05,16.59-4.53,25.48C7.14,113.67,6.92,118.13,6.92,122.57Z"/><path class="cls-2" d="M4,121.41a102.05,102.05,0,0,1,1.08-14.27A108.41,108.41,0,0,1,11.4,83.77a131.48,131.48,0,0,1,12-24.43A120.59,120.59,0,0,1,34.06,45.06a118.13,118.13,0,0,1,61.81-38c.27-.06.5-.12.74-.16a30.55,30.55,0,0,1,4.56-.54c2.17-.06,3.48-.45,8.56-1,4.54-.51,8-.71,11.68-.93,6-.35,10.71-.42,11.46-.43,8.91-.09,25.47,3.61,41.85,11.78a120.86,120.86,0,0,1,60.69,68.49,118,118,0,0,1,5.88,54.28c-1.42,11.64-4.13,19.86-7.69,30.66-2.44,7.38-5.22,14.15-10.87,27.65-4.08,9.75-8.15,19.52-12.78,29-4,8.15-8.62,16-13.13,23.84q-13.62,23.78-27.41,47.42c-7.84,13.53-15.66,27.07-23.59,40.54-4.81,8.19-10.3,16-14.52,24.48-2.06,4.15-4,6.85-8.66,6a8.64,8.64,0,0,1-5.33-3.24c-5.42-8.6-10.49-17.41-15.62-26.19-5.21-8.94-10.31-17.95-15.53-26.88-4.23-7.22-8.63-14.34-12.85-21.56-5.69-9.73-11.4-19.44-16.9-29.28-7.64-13.67-15.54-27.22-22.49-41.24A370.28,370.28,0,0,1,18.23,183c-3.85-10.49-7.71-21.18-10.69-35.95a205.37,205.37,0,0,1-3.11-20.89Zm231.81,1.45.66-.06c-.7-7.51-.84-15.12-2.2-22.51-3.26-17.7-10.88-33.55-21.89-47.77a106.61,106.61,0,0,0-41.67-32.93C161,15.3,150.55,11,140.13,10.09c-12.58-1.16-25.68-2.5-38.27,1.13C93,13.77,84,16.2,75.59,20,51.28,31.16,33.23,49.23,21.83,73.31c-4.7,9.93-9.1,20.76-10.1,31.51-1.22,13.12-1.7,26.6.9,40A242,242,0,0,0,26.71,191c10.9,26.42,24.6,51.43,38.92,76.09,18.44,31.74,37.17,63.3,55.81,94.91.5.85,1.46,2,2.18,2s1.64-1.19,2.15-2.05q9.8-16.65,19.49-33.37,24.24-41.89,48.46-83.81A404.16,404.16,0,0,0,225.25,178c6.31-17.65,12-35.55,10.56-54.76C235.8,123.14,235.81,123,235.81,122.86Z"/><path class="cls-1" d="M236.87,124a127.46,127.46,0,0,1-1.54,20.54A131.65,131.65,0,0,1,225.25,178c-19.56,44.68-31.53,66.68-31.53,66.68q-24.3,41.86-48.46,83.81-9.69,16.73-19.49,33.37c-.51.86-1.4,2-2.15,2.05s-1.68-1.14-2.18-2C102.8,330.34,84.07,298.78,65.63,267c-14.32-24.66-28-49.67-38.92-76.09A242,242,0,0,1,12.63,144.8c-2.6-13.38-2.12-26.86-.9-40,1-10.75,5.4-21.58,10.1-31.51C33.23,49.23,51.28,31.16,75.59,20,84,16.2,93,13.77,101.86,11.22c12.59-3.63,25.69-2.29,38.27-1.13,10.42.95,20.83,5.21,30.58,9.5a106.61,106.61,0,0,1,41.67,32.93,115.29,115.29,0,0,1,21.89,47.77,111.82,111.82,0,0,1,1.95,15.28Z"/><path class="cls-3" d="M53.41,188.11V125c0-3.1,0-9.47.29-16.3h41c-.2,5.34-.33,11.43-.33,16.3v63.16c0,19.19,12.9,34.81,28.77,34.81s28.78-15.62,28.78-34.81V125c0-2.66-.31-10-.67-16.3h41c.41,7.63.6,14.94.6,16.3v63.16c0,41.75-31.26,75.72-69.68,75.72S53.41,229.86,53.41,188.11Z"/><path class="cls-4" d="M90.18,113c-.12,4.2-.19,8.46-.19,12v63.16c0,21.59,14.85,39.15,33.11,39.15s33.11-17.56,33.11-39.15V125c0-2.2-.19-7.16-.43-12h32.27c.27,6,.4,11,.4,12v63.16c0,39.36-29.32,71.39-65.35,71.39s-65.35-32-65.35-71.39V125c0-2.47,0-6.88.15-12Z"/><path class="cls-5" d="M70.82,126.06h1.24v1.24h1.28v9.29l-2.53,0Zm98.47,8.59h2.48v.13h0v9.29h-2.47v-.14h0ZM70.82,151.43l2.53,0v9.29l-2.53,0Zm98.47,7.37h2.48v.13h0v9.29h-2.47v-.13h0ZM70.82,175.58l2.53,0v9.29l-2.53,0ZM169.29,183h2.48v.13h0v3.25c0,2.06-.1,4.13-.29,6.15l-2.47-.24s0-.08,0-.13h0c.18-1.91.27-3.85.27-5.78ZM74.71,199.36v0h0a58.57,58.57,0,0,0,2.65,8.69L75.1,209v0h0a60.8,60.8,0,0,1-2.76-9.06Zm91.18,6.93,2.34.83,0,.12h0a59.39,59.39,0,0,1-3.89,8.64l-2.17-1.19.06-.11h0A57,57,0,0,0,165.89,206.29ZM84.33,220.76l0,0,0,0a52.62,52.62,0,0,0,6,6.8l-1.71,1.8,0,0,0,0a54.9,54.9,0,0,1-6.26-7.14Zm69.27,5.48,1.78,1.73-.08.07,0,0a51.34,51.34,0,0,1-7.23,6.16l-1.43-2,.09-.06,0,0A50.16,50.16,0,0,0,153.6,226.24Zm-51.41,9.62a44.32,44.32,0,0,0,8.45,3.13l-.61,2.4-.08,0v0a46.39,46.39,0,0,1-8.92-3.33l1.09-2.22.06,0Zm31.62,2.62.72,2.37-.09,0v0a45.36,45.36,0,0,1-9.36,1.78l-.2-2.47H125v0A43.11,43.11,0,0,0,133.81,238.48Z"/><path class="cls-6" d="M71.72,127H73v1.24h1.27v9.29l-2.52,0Zm98.46,8.59h2.48v.13h0V145h-2.47v-.13h0ZM71.72,152.32l2.52,0v9.29l-2.52,0Zm98.46,7.37h2.48v.13h0v9.29h-2.47V169h0ZM71.72,176.47l2.52,0v9.28l-2.52,0Zm98.46,7.37h2.48V184h0v3.24c0,2.06-.09,4.13-.29,6.15l-2.47-.24a.53.53,0,0,0,0-.13h0c.18-1.91.27-3.85.27-5.78ZM75.6,200.25v0h0A58.57,58.57,0,0,0,78.3,209l-2.31.91v0l0,0a60.9,60.9,0,0,1-2.75-9.07Zm91.18,6.93,2.34.83s0,.08,0,.12h0a58.86,58.86,0,0,1-3.88,8.64l-2.17-1.19a.31.31,0,0,1,.05-.1l0,0A57,57,0,0,0,166.78,207.18ZM85.23,221.65l0,0,0,0a52,52,0,0,0,6,6.8l-1.7,1.8,0,0,0,0a54.14,54.14,0,0,1-6.27-7.13Zm69.26,5.48,1.78,1.73a.6.6,0,0,0-.08.08l0,0a52,52,0,0,1-7.24,6.16l-1.42-2,.08-.06,0,0A49.57,49.57,0,0,0,154.49,227.13Zm-51.41,9.62a43.74,43.74,0,0,0,8.46,3.13l-.62,2.4-.07,0v0a46.48,46.48,0,0,1-8.93-3.33l1.1-2.22.06,0Zm31.62,2.62.72,2.37-.09,0v0a45.36,45.36,0,0,1-9.36,1.78l-.2-2.46h.08v0A43.15,43.15,0,0,0,134.7,239.37Z"/><path class="cls-6" d="M162.52,132c-.67.13-1.32.32-2,.48l-.9.21c-.1,0-.19,0-.14-.11a2.73,2.73,0,0,0,.1-.41,1.48,1.48,0,0,1,.68-.76,11.16,11.16,0,0,1,2.25-1.23.2.2,0,0,0,.14-.23c0-1,.06-2.08.1-3.11.09-1.78.16-3.56.38-5.33.06-.51.15-1,.26-1.51a1.1,1.1,0,0,1,.51-.73l.12-.08a14.23,14.23,0,0,1,3.63-.92,39.6,39.6,0,0,1,6.25-.39,21.46,21.46,0,0,1,4.15.4,3.32,3.32,0,0,1,.62.16c0,.07-.08,0-.11,0-.47-.12-.94-.18-1.41-.27a.86.86,0,0,0-.32,0,.34.34,0,0,0-.25.54,1.75,1.75,0,0,0,.75,1l.08,0a2.6,2.6,0,0,0,.54.17.69.69,0,0,0,.37.1,4.59,4.59,0,0,0,.82.17c.28,0,.4-.09.41-.37s0-.44,0-.65a.51.51,0,0,0-.19-.45c.09,0,.14,0,.21.07a3.7,3.7,0,0,1,.46.31,1.63,1.63,0,0,1,.48,1c.19,1.18.29,2.37.37,3.56.14,2.22.24,4.43.3,6.65,0,.12,0,.16.15.17a2.07,2.07,0,0,1,.91.29,13.13,13.13,0,0,1,2.07,1.23,1.2,1.2,0,0,1,.49.8c.07.34.06.34-.3.25l-2.59-.63c-.14,0-.15-.06-.13-.23a1.63,1.63,0,0,0,0-.73c-.06-.18-.23-.17-.38-.21s-.24,0-.23.19q.12,4.06.14,8.13a.49.49,0,0,0,0,.12.13.13,0,0,0,0,.12v1.3c0,1.23,0,2.45,0,3.68a1.09,1.09,0,0,0,0,.18,3.29,3.29,0,0,0,0,.83v.69a.53.53,0,0,0,0,.25v.08c0,1.06-.05,2.13-.08,3.19,0,2.23-.14,4.45-.32,6.67a20.84,20.84,0,0,1-.4,2.93,1.45,1.45,0,0,1-.88,1,10.84,10.84,0,0,1-3.15.91,33.12,33.12,0,0,1-6.29.45,22.18,22.18,0,0,1-3.26-.28h-.11l0,0h-.17l-.78-.2a6.45,6.45,0,0,1-1.48-.56,2,2,0,0,1-1-1.59c-.21-1.38-.32-2.77-.41-4.17-.16-2.54-.25-5.08-.32-7.63q-.15-6.09-.11-12.18c0-1.07,0-2.14,0-3.21,0-.06,0-.11,0-.16,0-.36,0-.71,0-1.11-.22.18-.14.37-.11.55s0,.25-.12.34c.09,0,.16,0,.19.08S162.55,131.91,162.52,132Zm18.19,20.25s0,.07.07.06v-.06s0-.09,0-.13v-4.34a.5.5,0,0,0,0-.12v-.09a.29.29,0,0,0,0-.16V147a.86.86,0,0,0,0-.32.2.2,0,0,0,0-.17.54.54,0,0,0,0-.28v-.09a.28.28,0,0,0,0-.2v-.13c0-.73,0-1.47,0-2.21,0-.05,0-.12-.08-.09h0l-1.68.19c-.1,0-.12.05-.12.14a31.89,31.89,0,0,0,.13,5.35,2.94,2.94,0,0,0,.34,1.24A20,20,0,0,0,180.71,152.2Zm-15.09-4.15h0s0,0,0-.05c.11-1.53.08-3.06,0-4.59,0-.09-.05-.1-.13-.11l-1.58-.2c-.16,0-.21,0-.21.19,0,1.12,0,2.25,0,3.37,0,1.66,0,3.32,0,5,0,.08,0,.17,0,.25l.72-.92a3.93,3.93,0,0,0,1-1.95A3.54,3.54,0,0,0,165.62,148.05Zm-.35-15.11c.3.84.62,1.67,1,2.48a.52.52,0,0,0,.75.28,6.8,6.8,0,0,1,.8-.26,12.41,12.41,0,0,1,2.1-.25c.07,0,.13,0,.17-.09a.78.78,0,0,1,.6-.49,5.14,5.14,0,0,1,1.11-.18,7.46,7.46,0,0,1,2.11.15c.3.07.54.2.6.53,0,.1.07.08.13.08l1.08.09a7.51,7.51,0,0,1,2,.41.45.45,0,0,0,.66-.2,6.41,6.41,0,0,0,.57-1.41s.05,0,0-.08a4.17,4.17,0,0,0,.24-.58c.29-.7.55-1.4.81-2.11a1,1,0,0,0-.57-1.33,3.82,3.82,0,0,0-.48-.15,27.12,27.12,0,0,0-5.39-.66c-1.19,0-2.38,0-3.58,0a25.24,25.24,0,0,0-3.12.35,1.13,1.13,0,0,0-.32.06A9.1,9.1,0,0,0,165,130a.7.7,0,0,0-.51,1,5,5,0,0,0,.26.68A11.25,11.25,0,0,0,165.27,132.94Zm7.23,22.9H173a38.09,38.09,0,0,0,4.89-.41c.54-.09,1.08-.18,1.61-.29a.61.61,0,0,0,.51-.8,2.59,2.59,0,0,0-.14-.42l-1.23-3a2.25,2.25,0,0,0-.3-.6.7.7,0,0,0-.85-.25,7.13,7.13,0,0,1-1.88.43,37.46,37.46,0,0,1-5.4.12,15.76,15.76,0,0,1-1.82-.15,6.43,6.43,0,0,1-1.12-.31c-.62-.22-.91-.11-1.17.5-.5,1.17-1,2.35-1.39,3.55a.68.68,0,0,0,.56,1,26.51,26.51,0,0,0,2.81.45A38.08,38.08,0,0,0,172.5,155.84Zm-8.58-22.76,0,0v1.28q0,3.94,0,7.89c0,.14,0,.18.18.18h1.52c.17,0,.21,0,.2-.21V137a2.44,2.44,0,0,0,0-.27A7.41,7.41,0,0,0,163.92,133.08Zm16.77.31-.14.15a9.84,9.84,0,0,0-1.16,1.75,4.35,4.35,0,0,0-.59,1.91c0,1.82,0,3.65,0,5.47,0,.12,0,.14.15.14h1.54c.18,0,.21-.05.21-.22v-8.44A4.8,4.8,0,0,0,180.69,133.39Zm-.5-3.24c0-.14,0-.27,0-.4l-.06-2.13a48.53,48.53,0,0,0-.34-5.25,1.73,1.73,0,0,0-.77-1.41,4.66,4.66,0,0,0-1.06-.44,14.68,14.68,0,0,0-3.55-.49c-1,0-1.95,0-2.93,0a26.47,26.47,0,0,0-4.07.5,8.39,8.39,0,0,0-2.07.63,1.18,1.18,0,0,0-.74.88c0,.25-.1.49-.14.74-.12.83-.17,1.66-.22,2.49-.09,1.52-.11,3-.14,4.56,0,.1.08.19,0,.3-.06-.1,0-.18,0-.25,0-.65.09-1.29.13-1.94a50.67,50.67,0,0,1,.53-5.5,1.25,1.25,0,0,1,.86-1.1l.12,0a16.11,16.11,0,0,1,3.51-.73c1-.14,2.06-.19,3.1-.23a22.37,22.37,0,0,1,4.77.27,4.67,4.67,0,0,1,1.77.61,1.14,1.14,0,0,1,.54.76c0,.13.06.26.08.4.23,1.58.35,3.18.46,4.78.06.89.12,1.79.17,2.68C180.2,130,180.27,130.06,180.19,130.15Zm-11.82-10.72a29.57,29.57,0,0,1,7.34-.12l-.36-1a.17.17,0,0,0-.17-.14c-.27,0-.55-.09-.83-.11a19,19,0,0,0-2.92,0,14.18,14.18,0,0,0-2.67.37c-.06,0-.12,0-.14.09C168.54,118.77,168.46,119.09,168.37,119.43Zm-3.72,36.43a3.94,3.94,0,0,0,0,1c.06.9.12,1.8.17,2.7a.83.83,0,0,0,.5.74,5.42,5.42,0,0,0,1.41.46,24.45,24.45,0,0,0,3.07.35,34.34,34.34,0,0,0,7-.28,7.73,7.73,0,0,0,2-.52.93.93,0,0,0,.59-.68c.21-.95.32-1.92.44-2.89a1.72,1.72,0,0,0,0-.6c0,.2-.08.4-.11.6-.14.94-.29,1.87-.52,2.79a.79.79,0,0,1-.46.56,5.47,5.47,0,0,1-1.2.33,24.47,24.47,0,0,1-3.41.34,38.16,38.16,0,0,1-7.25-.26,4.9,4.9,0,0,1-1.51-.41.57.57,0,0,1-.39-.44l-.21-1.93C164.76,157.08,164.7,156.47,164.65,155.86Zm.32-35.24c.38-.08.81-.24,1.25-.36a1.7,1.7,0,0,0,1.25-1.26v0a.32.32,0,0,0-.21-.47,1,1,0,0,0-.63,0,8.52,8.52,0,0,0-1.82.51.49.49,0,0,0-.33.51c0,.27,0,.53.09.79S164.73,120.62,165,120.62Zm-2.78,11.19h0l-.74.19h0Zm21,.7Zm1,.25-.05,0s0,0,0,0S184.17,132.76,184.21,132.76Zm-.2,0H184v0H184Zm-.16,0h0Zm-1.39-.34h0Zm1.19.31h0Zm-.71-.19,0,0H183Zm-.15,0,0,0h0l0,0Zm-.14,0h0Zm-.32-.09h0Z"/><text class="cls-7" transform="translate(42.93 424.85)">U</text><text class="cls-8" transform="translate(91.42 423.2)">bic<tspan class="cls-9" x="53.67" y="0">A</tspan><tspan x="79.36" y="0">pp</tspan></text></g></g></svg>